<?xml version="1.0" standalone="no"?>
<!DOCTYPE svg PUBLIC "-//W3C//DTD SVG 20010904//EN"
 "http://www.w3.org/TR/2001/REC-SVG-20010904/DTD/svg10.dtd">
<svg version="1.0" xmlns="http://www.w3.org/2000/svg"
 width="225.000000pt" height="225.000000pt" viewBox="0 0 225.000000 225.000000"
 preserveAspectRatio="xMidYMid meet">

<g transform="translate(0.000000,225.000000) scale(0.100000,-0.100000)"
fill="#000000" stroke="none">
<path d="M975 2239 c-169 -21 -382 -107 -516 -208 -144 -109 -261 -249 -339
-406 -276 -557 -50 -1230 505 -1505 557 -276 1230 -50 1505 505 276 557 50
1230 -505 1505 -204 101 -422 137 -650 109z m380 -228 c249 -65 472 -249 590
-486 71 -142 88 -222 88 -400 0 -178 -17 -258 -88 -400 -118 -236 -337 -418
-590 -486 -115 -32 -345 -32 -460 0 -313 85 -571 343 -656 656 -32 115 -32
345 0 460 92 338 378 605 719 670 105 20 291 13 397 -14z"/>
<path d="M1065 1810 c-24 -12 -152 -132 -327 -307 -276 -277 -318 -327 -318
-380 0 -32 40 -98 69 -116 35 -21 102 -22 139 -3 15 8 99 87 187 175 88 89
163 161 167 161 5 0 8 -185 8 -411 0 -463 -2 -452 75 -489 52 -25 68 -25 120
0 77 37 75 26 75 489 0 226 3 411 8 411 4 0 79 -72 167 -161 88 -88 172 -167
187 -175 37 -19 104 -18 139 3 30 18 69 84 69 118 0 51 -51 112 -327 387 -333
332 -348 343 -438 298z"/>
</g>
</svg>
